<?xml version="1.0" encoding="UTF-8"?>
<!DOCTYPE svg PUBLIC "-//W3C//DTD SVG 1.1//EN" "http://www.w3.org/Graphics/SVG/1.1/DTD/svg11.dtd">
<svg xmlns="http://www.w3.org/2000/svg" version="1.1" width="938px" height="563px" style="shape-rendering:geometricPrecision; text-rendering:geometricPrecision; image-rendering:optimizeQuality; fill-rule:evenodd; clip-rule:evenodd" xmlns:xlink="http://www.w3.org/1999/xlink">
<g><path style="opacity:1" fill="#fefefe" d="M -0.5,-0.5 C 312.167,-0.5 624.833,-0.5 937.5,-0.5C 937.5,187.167 937.5,374.833 937.5,562.5C 624.833,562.5 312.167,562.5 -0.5,562.5C -0.5,374.833 -0.5,187.167 -0.5,-0.5 Z"/></g>
<g><path style="opacity:1" fill="#e1e1e1" d="M 769.5,0.5 C 782.2,-0.901372 791.366,4.09863 797,15.5C 799.96,25.2927 797.96,33.9593 791,41.5C 781.784,52.8608 769.951,58.3608 755.5,58C 738.167,50.0021 734.001,37.5021 743,20.5C 750.008,11.3135 758.842,4.6468 769.5,0.5 Z"/></g>
<g><path style="opacity:1" fill="#fefefe" d="M 769.5,10.5 C 782.299,11.1296 788.132,17.7963 787,30.5C 781.396,42.7773 771.896,48.2773 758.5,47C 748.79,40.6294 746.957,32.4628 753,22.5C 757.629,17.1212 763.129,13.1212 769.5,10.5 Z"/></g>
<g><path style="opacity:1" fill="#d50633" d="M 584.5,152.5 C 584.5,153.167 584.167,153.5 583.5,153.5C 579.542,150.715 575.709,147.715 572,144.5C 573.326,147.231 574.826,150.064 576.5,153C 576.333,153.5 576.167,154 576,154.5C 575.329,153.748 574.496,153.414 573.5,153.5C 572.998,151.915 571.998,151.415 570.5,152C 571.373,153.045 572.373,153.878 573.5,154.5C 573.611,155.117 573.944,155.617 574.5,156C 572.619,155.904 570.953,156.071 569.5,156.5C 569.5,163.167 569.5,169.833 569.5,176.5C 567.814,174.984 565.981,173.65 564,172.5C 547.538,178.303 535.538,188.97 528,204.5C 526.03,226.196 535.863,236.362 557.5,235C 561.265,233.583 564.931,232.083 568.5,230.5C 566.852,250.615 560.352,268.948 549,285.5C 533.087,302.037 513.587,310.87 490.5,312C 479.172,312.5 467.838,312.667 456.5,312.5C 455.791,311.596 454.791,311.263 453.5,311.5C 445.868,301.867 437.868,292.533 429.5,283.5C 426.418,285.372 423.751,287.705 421.5,290.5C 424.667,294.167 427.833,297.833 431,301.5C 431.613,303.495 431.113,305.162 429.5,306.5C 429.167,306.5 428.833,306.5 428.5,306.5C 402.922,296.731 387.088,278.397 381,251.5C 377.389,231.774 375.223,211.94 374.5,192C 381.442,192.582 382.275,190.749 377,186.5C 376.833,184.833 376.667,183.167 376.5,181.5C 376.613,179.359 377.28,177.525 378.5,176C 375.041,172.229 371.708,168.395 368.5,164.5C 370.55,163.678 370.217,162.678 367.5,161.5C 365.372,158.87 363.039,156.37 360.5,154C 361.167,153.333 361.833,153.333 362.5,154C 366.244,156.955 370.078,159.789 374,162.5C 373.005,159.874 372.672,157.207 373,154.5C 364.349,147.016 356.183,139.016 348.5,130.5C 357.725,135.115 366.225,141.448 374,149.5C 373.214,146.48 372.048,143.48 370.5,140.5C 370.624,139.893 370.957,139.56 371.5,139.5C 372.458,140.962 373.624,142.295 375,143.5C 375.279,141.588 374.446,140.254 372.5,139.5C 369.842,136.197 367.175,132.864 364.5,129.5C 364.833,129.167 365.167,128.833 365.5,128.5C 368.153,130.387 370.819,131.887 373.5,133C 371.948,130.057 370.281,127.223 368.5,124.5C 369.133,124.12 369.8,123.787 370.5,123.5C 369.148,122.476 367.815,121.476 366.5,120.5C 360.505,114.337 354.671,108.004 349,101.5C 348.333,100.833 348.333,100.167 349,99.5C 360.5,109 372,118.5 383.5,128C 384.167,128.667 384.833,128.667 385.5,128C 380.732,122.476 375.732,117.143 370.5,112C 378.112,115.139 385.446,118.806 392.5,123C 387.302,117.467 381.802,112.3 376,107.5C 373.626,103.25 371.126,99.0838 368.5,95C 369.416,94.6258 370.25,94.1258 371,93.5C 374,95.5 377,97.5 380,99.5C 379.628,97.08 378.295,95.08 376,93.5C 375.5,76.8367 375.333,60.17 375.5,43.5C 396.5,43.5 417.5,43.5 438.5,43.5C 438.174,78.21 438.507,112.877 439.5,147.5C 438.167,147.833 436.833,148.167 435.5,148.5C 436.89,150.169 437.223,151.836 436.5,153.5C 437.971,156.136 439.637,158.636 441.5,161C 441.167,161.333 440.833,161.667 440.5,162C 443.731,164.727 446.397,167.894 448.5,171.5C 447.21,172.408 445.877,172.241 444.5,171C 439.908,167.023 434.908,164.023 429.5,162C 430.975,164.309 432.642,166.476 434.5,168.5C 434.333,168.833 434.167,169.167 434,169.5C 432.226,168.035 430.392,166.702 428.5,165.5C 427.438,163.243 425.772,162.077 423.5,162C 424.705,163.376 426.038,164.542 427.5,165.5C 430.457,169.792 433.79,173.792 437.5,177.5C 436.375,178.652 436.375,179.652 437.5,180.5C 437.709,181.922 438.209,183.255 439,184.5C 446.167,191.667 453.333,198.833 460.5,206C 459.833,206.667 459.167,206.667 458.5,206C 456.963,204.293 455.296,202.793 453.5,201.5C 451.798,198.605 449.464,196.772 446.5,196C 447.056,196.383 447.389,196.883 447.5,197.5C 444.817,195.664 441.817,194.664 438.5,194.5C 438.841,197.516 440.007,200.182 442,202.5C 445.355,207.288 449.188,211.621 453.5,215.5C 448.313,212.827 443.813,209.16 440,204.5C 438.915,206.373 437.582,208.04 436,209.5C 432.59,205.584 428.757,202.251 424.5,199.5C 423.483,197.401 422.15,196.401 420.5,196.5C 421.521,198.188 422.855,199.521 424.5,200.5C 435.259,212.468 445.259,224.968 454.5,238C 451.907,237.454 449.74,235.954 448,233.5C 447.833,233.833 447.667,234.167 447.5,234.5C 450.022,237.188 452.356,240.021 454.5,243C 443.083,235.28 432.417,226.28 422.5,216C 421.668,215.312 421.002,215.479 420.5,216.5C 425.761,223.351 431.261,230.018 437,236.5C 437.688,237.332 437.521,237.998 436.5,238.5C 435.084,236.861 433.417,236.027 431.5,236C 435,240.167 438.5,244.333 442,248.5C 444.243,253.321 446.743,257.988 449.5,262.5C 447.402,266.434 444.402,269.6 440.5,272C 450.833,284.333 461.167,296.667 471.5,309C 473.279,308.956 474.945,308.289 476.5,307C 478.709,304.622 481.042,302.455 483.5,300.5C 475.521,290.687 467.354,281.02 459,271.5C 458.308,270.563 458.475,269.897 459.5,269.5C 461.435,270.15 463.435,270.483 465.5,270.5C 469.298,271.483 473.298,271.817 477.5,271.5C 482.423,278.76 488.09,285.426 494.5,291.5C 497.874,288.49 501.208,285.49 504.5,282.5C 503.239,279.736 501.405,277.403 499,275.5C 498.308,274.563 498.475,273.897 499.5,273.5C 500.847,274.028 502.181,274.195 503.5,274C 500.065,267.739 495.732,262.239 490.5,257.5C 489.375,255.871 488.041,254.371 486.5,253C 486.833,252.833 487.167,252.667 487.5,252.5C 492.755,256.044 497.921,259.71 503,263.5C 503.308,262.692 503.808,262.025 504.5,261.5C 505.548,262.383 506.715,263.05 508,263.5C 509.03,263.164 509.53,262.497 509.5,261.5C 509.735,260.903 510.235,260.57 511,260.5C 517.126,261.696 523.293,262.196 529.5,262C 533.339,258.991 537.006,255.824 540.5,252.5C 530.189,239.688 519.689,227.021 509,214.5C 508.617,215.056 508.117,215.389 507.5,215.5C 506.86,178.74 507.526,142.073 509.5,105.5C 507.553,101.781 505.219,98.2811 502.5,95C 504.899,94.289 507.232,94.4557 509.5,95.5C 509.833,95 510.167,94.5 510.5,94C 509.38,92.2626 508.38,90.4292 507.5,88.5C 508.5,87.8333 509.5,87.1667 510.5,86.5C 509,83.5 507.5,80.5 506,77.5C 505.251,76.365 505.417,75.365 506.5,74.5C 509.264,75.7612 511.597,77.5946 513.5,80C 514.167,80.6667 514.833,80.6667 515.5,80C 512.049,76.2602 508.715,72.4268 505.5,68.5C 507.044,68.7111 508.71,68.7111 510.5,68.5C 507.833,64.5 505.167,60.5 502.5,56.5C 503.262,56.0894 504.262,55.9227 505.5,56C 503.74,55.0347 503.406,53.868 504.5,52.5C 506.169,53.8897 507.836,54.2231 509.5,53.5C 507.407,48.1563 504.407,43.323 500.5,39C 501.167,38.3333 501.833,38.3333 502.5,39C 504.388,41.1896 506.555,43.0229 509,44.5C 510.691,42.2913 510.524,40.4579 508.5,39C 508.833,38.8333 509.167,38.6667 509.5,38.5C 513.674,41.0877 518.007,43.421 522.5,45.5C 523.674,42.4749 523.007,39.8082 520.5,37.5C 520.833,37.1667 521.167,36.8333 521.5,36.5C 525.477,39.3092 529.31,42.3092 533,45.5C 533.414,45.0426 533.914,44.7093 534.5,44.5C 537.58,45.7885 540.414,47.4552 543,49.5C 543.667,48.8333 543.667,48.1667 543,47.5C 537.699,43.2002 532.699,38.5336 528,33.5C 527.409,32.5165 527.743,31.8499 529,31.5C 536.765,36.2615 544.265,41.4281 551.5,47C 552.893,48.1711 553.727,49.6711 554,51.5C 564.259,61.0879 573.759,71.2545 582.5,82C 580.024,81.2527 577.691,79.9194 575.5,78C 574.056,77.2195 572.723,77.3861 571.5,78.5C 572.333,80.1667 573.167,81.8333 574,83.5C 578.833,87 583,91.1667 586.5,96C 581.398,94.4389 576.731,91.7722 572.5,88C 570.741,87.2025 569.074,87.3691 567.5,88.5C 569.278,90.9446 570.611,93.6112 571.5,96.5C 571.24,98.1871 570.573,99.6871 569.5,101C 571.363,103.364 573.029,105.864 574.5,108.5C 573.167,108.833 571.833,109.167 570.5,109.5C 572.679,111.717 572.679,113.717 570.5,115.5C 571.167,116.5 571.833,117.5 572.5,118.5C 570.841,119.998 569.175,121.498 567.5,123C 568.504,124.798 569.004,126.632 569,128.5C 564.65,125.094 560.15,122.261 555.5,120C 565.745,130.407 575.412,141.24 584.5,152.5 Z"/></g>
<g><path style="opacity:1" fill="#d92743" d="M 556.5,40.5 C 557.5,41.5 558.5,42.5 559.5,43.5C 561.962,46.4639 564.629,49.2972 567.5,52C 567.167,52.3333 566.833,52.6667 566.5,53C 568.993,56.1653 570.493,59.6653 571,63.5C 567.167,60.3333 563.333,57.1667 559.5,54C 562.855,54.7951 563.355,53.6284 561,50.5C 556.402,45.7784 551.902,40.9451 547.5,36C 550.771,36.7263 553.771,38.2263 556.5,40.5 Z"/></g>
<g><path style="opacity:1" fill="#ec8293" d="M 560.5,41.5 C 560.5,41.8333 560.5,42.1667 560.5,42.5C 559.833,42.5 559.5,42.8333 559.5,43.5C 558.5,42.5 557.5,41.5 556.5,40.5C 558.128,39.1472 559.462,39.4805 560.5,41.5 Z"/></g>
<g><path style="opacity:1" fill="#e1e1e1" d="M 717.5,43.5 C 718.873,43.3433 720.207,43.51 721.5,44C 722.79,46.292 724.457,48.292 726.5,50C 716.783,53.2701 708.283,58.4368 701,65.5C 693.267,74.5513 693.767,83.0513 702.5,91C 710.574,93.8404 717.908,92.507 724.5,87C 728.203,83.6325 731.536,79.9658 734.5,76C 733.12,74.0748 731.62,72.2415 730,70.5C 726.333,73.5 722.667,76.5 719,79.5C 716.778,77.6152 714.944,75.4485 713.5,73C 719.665,67.3368 725.999,61.8368 732.5,56.5C 738.046,61.8779 743.046,67.7113 747.5,74C 739.365,87.403 728.032,97.0696 713.5,103C 698.84,105.425 689.34,99.5919 685,85.5C 684.333,81.8333 684.333,78.1667 685,74.5C 692.134,60.197 702.968,49.8637 717.5,43.5 Z"/></g>
<g><path style="opacity:1" fill="#d92643" d="M 560.5,42.5 C 560.5,42.1667 560.5,41.8333 560.5,41.5C 565.203,42.6807 569.87,44.514 574.5,47C 579.867,52.0318 584.867,57.3651 589.5,63C 586.034,61.934 582.701,60.2673 579.5,58C 573.002,52.9992 566.669,47.8326 560.5,42.5 Z"/></g>
<g><path style="opacity:1" fill="#e1e1e1" d="M 658.5,93.5 C 677.69,92.5273 687.19,101.527 687,120.5C 681.467,135.698 670.967,145.865 655.5,151C 635.378,151.541 626.211,141.708 628,121.5C 634.828,108.505 644.994,99.1715 658.5,93.5 Z"/></g>
<g><path style="opacity:1" fill="#fefefe" d="M 655.5,104.5 C 669.944,102.78 676.777,109.113 676,123.5C 670.381,135.8 660.881,141.3 647.5,140C 637.358,133.079 635.858,124.579 643,114.5C 646.963,110.787 651.129,107.454 655.5,104.5 Z"/></g>
<g><path style="opacity:1" fill="#e76a80" d="M 366.5,120.5 C 367.815,121.476 369.148,122.476 370.5,123.5C 369.8,123.787 369.133,124.12 368.5,124.5C 367.163,123.685 366.163,122.518 365.5,121C 365.728,120.601 366.062,120.435 366.5,120.5 Z"/></g>
<g><path style="opacity:1" fill="#eb8a9f" d="M 371.5,139.5 C 371.833,139.5 372.167,139.5 372.5,139.5C 374.446,140.254 375.279,141.588 375,143.5C 373.624,142.295 372.458,140.962 371.5,139.5 Z"/></g>
<g><path style="opacity:1" fill="#ed8ea1" d="M 573.5,153.5 C 573.5,153.833 573.5,154.167 573.5,154.5C 572.373,153.878 571.373,153.045 570.5,152C 571.998,151.415 572.998,151.915 573.5,153.5 Z"/></g>
<g><path style="opacity:1" fill="#e1e1e1" d="M 584.5,152.5 C 591.695,162.708 599.695,172.375 608.5,181.5C 617.479,174.355 626.313,167.022 635,159.5C 638.069,161.513 639.735,164.18 640,167.5C 628.655,176.847 617.322,186.18 606,195.5C 604.056,194.561 602.389,193.227 601,191.5C 592.876,181.041 584.376,170.874 575.5,161C 578.062,158.267 580.729,155.767 583.5,153.5C 584.167,153.5 584.5,153.167 584.5,152.5 Z"/></g>
<g><path style="opacity:1" fill="#e7697e" d="M 367.5,161.5 C 370.217,162.678 370.55,163.678 368.5,164.5C 365.783,163.322 365.45,162.322 367.5,161.5 Z"/></g>
<g><path style="opacity:1" fill="#f4aeb9" d="M 428.5,165.5 C 428.167,165.5 427.833,165.5 427.5,165.5C 426.038,164.542 424.705,163.376 423.5,162C 425.772,162.077 427.438,163.243 428.5,165.5 Z"/></g>
<g><path style="opacity:1" fill="#bb012c" d="M 569.5,179.5 C 569.631,180.376 569.298,181.043 568.5,181.5C 557.597,185.027 548.764,191.36 542,200.5C 537.133,210.032 539.3,217.532 548.5,223C 551.833,223.667 555.167,223.667 558.5,223C 562.499,221.667 566.166,219.834 569.5,217.5C 569.5,220.833 569.5,224.167 569.5,227.5C 568.833,227.5 568.5,227.833 568.5,228.5C 554.656,237.974 542.49,236.308 532,223.5C 527.094,214.644 527.428,205.978 533,197.5C 540.747,186.552 550.914,178.885 563.5,174.5C 566.128,175.465 568.128,177.132 569.5,179.5 Z"/></g>
<g><path style="opacity:1" fill="#ec899d" d="M 437.5,177.5 C 440.098,178.528 440.098,179.528 437.5,180.5C 436.375,179.652 436.375,178.652 437.5,177.5 Z"/></g>
<g><path style="opacity:1" fill="#d20233" d="M 569.5,214.5 C 569.5,214.833 569.5,215.167 569.5,215.5C 565.687,217.908 561.687,220.075 557.5,222C 547.885,223.211 542.552,219.044 541.5,209.5C 542.093,202.728 545.093,197.228 550.5,193C 556.056,188.278 562.389,185.111 569.5,183.5C 569.5,193.833 569.5,204.167 569.5,214.5 Z"/></g>
<g><path style="opacity:1" fill="#d7294e" d="M 569.5,156.5 C 570.495,167.988 570.828,179.655 570.5,191.5C 570.825,199.352 570.492,207.018 569.5,214.5C 569.5,204.167 569.5,193.833 569.5,183.5C 562.389,185.111 556.056,188.278 550.5,193C 545.093,197.228 542.093,202.728 541.5,209.5C 542.552,219.044 547.885,223.211 557.5,222C 561.687,220.075 565.687,217.908 569.5,215.5C 569.5,216.167 569.5,216.833 569.5,217.5C 566.166,219.834 562.499,221.667 558.5,223C 555.167,223.667 551.833,223.667 548.5,223C 539.3,217.532 537.133,210.032 542,200.5C 548.764,191.36 557.597,185.027 568.5,181.5C 569.298,181.043 569.631,180.376 569.5,179.5C 569.5,178.5 569.5,177.5 569.5,176.5C 569.5,169.833 569.5,163.167 569.5,156.5 Z"/></g>
<g><path style="opacity:1" fill="#e4e4e4" d="M 569.5,227.5 C 569.5,224.167 569.5,220.833 569.5,217.5C 569.5,216.833 569.5,216.167 569.5,215.5C 569.5,215.167 569.5,214.833 569.5,214.5C 570.492,207.018 570.825,199.352 570.5,191.5C 572.907,190.206 575.074,188.539 577,186.5C 582.073,192.317 586.907,198.317 591.5,204.5C 585.521,213.479 578.187,221.146 569.5,227.5 Z"/></g>
<g><path style="opacity:1" fill="#d51945" d="M 569.5,176.5 C 569.5,177.5 569.5,178.5 569.5,179.5C 568.128,177.132 566.128,175.465 563.5,174.5C 550.914,178.885 540.747,186.552 533,197.5C 527.428,205.978 527.094,214.644 532,223.5C 542.49,236.308 554.656,237.974 568.5,228.5C 568.5,229.167 568.5,229.833 568.5,230.5C 564.931,232.083 561.265,233.583 557.5,235C 535.863,236.362 526.03,226.196 528,204.5C 535.538,188.97 547.538,178.303 564,172.5C 565.981,173.65 567.814,174.984 569.5,176.5 Z"/></g>
<g><path style="opacity:1" fill="#e87387" d="M 453.5,201.5 C 450.708,201.378 448.708,200.044 447.5,197.5C 447.389,196.883 447.056,196.383 446.5,196C 449.464,196.772 451.798,198.605 453.5,201.5 Z"/></g>
<g><path style="opacity:1" fill="#f3b0bd" d="M 424.5,199.5 C 424.5,199.833 424.5,200.167 424.5,200.5C 422.855,199.521 421.521,198.188 420.5,196.5C 422.15,196.401 423.483,197.401 424.5,199.5 Z"/></g>
<g><path style="opacity:1" fill="#bb042d" d="M 507.5,217.5 C 509.716,218.203 511.549,219.536 513,221.5C 521.311,231.979 529.811,242.312 538.5,252.5C 535.646,255.188 532.646,257.688 529.5,260C 522.119,260.163 514.785,259.663 507.5,258.5C 506.836,256.513 505.669,254.846 504,253.5C 503.506,251.866 503.34,250.199 503.5,248.5C 509.528,249.639 515.528,249.973 521.5,249.5C 516.821,243.491 511.821,237.825 506.5,232.5C 506.221,227.405 506.555,222.405 507.5,217.5 Z"/></g>
<g><path style="opacity:1" fill="#e97b90" d="M 453.5,215.5 C 455.886,216.373 457.886,217.873 459.5,220C 456.879,219.573 454.879,218.073 453.5,215.5 Z"/></g>
<g><path style="opacity:1" fill="#d61945" d="M 509.5,261.5 C 508.599,260.71 507.932,259.71 507.5,258.5C 514.785,259.663 522.119,260.163 529.5,260C 532.646,257.688 535.646,255.188 538.5,252.5C 529.811,242.312 521.311,231.979 513,221.5C 511.549,219.536 509.716,218.203 507.5,217.5C 507.5,216.833 507.5,216.167 507.5,215.5C 508.117,215.389 508.617,215.056 509,214.5C 519.689,227.021 530.189,239.688 540.5,252.5C 537.006,255.824 533.339,258.991 529.5,262C 523.293,262.196 517.126,261.696 511,260.5C 510.235,260.57 509.735,260.903 509.5,261.5 Z"/></g>
<g><path style="opacity:1" fill="#d5163f" d="M 506.5,232.5 C 511.821,237.825 516.821,243.491 521.5,249.5C 515.528,249.973 509.528,249.639 503.5,248.5C 504.935,243.268 505.935,237.934 506.5,232.5 Z"/></g>
<g><path style="opacity:1" fill="#e3dedf" d="M 503.5,248.5 C 503.34,250.199 503.506,251.866 504,253.5C 505.669,254.846 506.836,256.513 507.5,258.5C 507.932,259.71 508.599,260.71 509.5,261.5C 509.53,262.497 509.03,263.164 508,263.5C 506.715,263.05 505.548,262.383 504.5,261.5C 503.808,262.025 503.308,262.692 503,263.5C 497.921,259.71 492.755,256.044 487.5,252.5C 487.167,252.667 486.833,252.833 486.5,253C 488.041,254.371 489.375,255.871 490.5,257.5C 487.531,256.671 484.531,256.505 481.5,257C 485.402,262.404 490.069,266.904 495.5,270.5C 494.355,271.793 494.689,272.959 496.5,274C 491.202,273.106 486.369,270.939 482,267.5C 480.812,268.563 480.312,269.897 480.5,271.5C 479.5,271.5 478.5,271.5 477.5,271.5C 473.298,271.817 469.298,271.483 465.5,270.5C 469.514,270.666 473.514,270.499 477.5,270C 472.927,264.85 468.594,259.517 464.5,254C 467.312,251.099 470.312,248.432 473.5,246C 483.454,246.761 493.454,247.595 503.5,248.5 Z"/></g>
<g><path style="opacity:1" fill="#fdf8f9" d="M 490.5,257.5 C 495.732,262.239 500.065,267.739 503.5,274C 502.181,274.195 500.847,274.028 499.5,273.5C 498.205,272.512 496.872,271.512 495.5,270.5C 490.069,266.904 485.402,262.404 481.5,257C 484.531,256.505 487.531,256.671 490.5,257.5 Z"/></g>
<g><path style="opacity:1" fill="#bb002c" d="M 452.5,265.5 C 453.167,265.833 453.833,266.167 454.5,266.5C 462.505,278.352 471.505,289.518 481.5,300C 478.963,302.872 476.13,305.372 473,307.5C 462.691,296.204 452.858,284.537 443.5,272.5C 445.656,269.002 448.656,266.669 452.5,265.5 Z"/></g>
<g><path style="opacity:1" fill="#c20e34" d="M 495.5,270.5 C 496.872,271.512 498.205,272.512 499.5,273.5C 498.475,273.897 498.308,274.563 499,275.5C 501.405,277.403 503.239,279.736 504.5,282.5C 501.208,285.49 497.874,288.49 494.5,291.5C 488.09,285.426 482.423,278.76 477.5,271.5C 478.5,271.5 479.5,271.5 480.5,271.5C 480.312,269.897 480.812,268.563 482,267.5C 486.369,270.939 491.202,273.106 496.5,274C 494.689,272.959 494.355,271.793 495.5,270.5 Z"/></g>
<g><path style="opacity:1" fill="#bc082e" d="M 453.5,311.5 C 445.157,311.333 437.157,309.666 429.5,306.5C 431.113,305.162 431.613,303.495 431,301.5C 427.833,297.833 424.667,294.167 421.5,290.5C 423.751,287.705 426.418,285.372 429.5,283.5C 437.868,292.533 445.868,301.867 453.5,311.5 Z"/></g>
<g><path style="opacity:1" fill="#d61a45" d="M 449.5,262.5 C 450.833,263.167 451.833,264.167 452.5,265.5C 448.656,266.669 445.656,269.002 443.5,272.5C 452.858,284.537 462.691,296.204 473,307.5C 476.13,305.372 478.963,302.872 481.5,300C 471.505,289.518 462.505,278.352 454.5,266.5C 456.368,267.263 458.035,268.263 459.5,269.5C 458.475,269.897 458.308,270.563 459,271.5C 467.354,281.02 475.521,290.687 483.5,300.5C 481.042,302.455 478.709,304.622 476.5,307C 474.945,308.289 473.279,308.956 471.5,309C 461.167,296.667 450.833,284.333 440.5,272C 444.402,269.6 447.402,266.434 449.5,262.5 Z"/></g>
<g><path style="opacity:1" fill="#e1e1e1" d="M 428.5,306.5 C 428.833,306.5 429.167,306.5 429.5,306.5C 437.157,309.666 445.157,311.333 453.5,311.5C 454.791,311.263 455.791,311.596 456.5,312.5C 456.062,312.435 455.728,312.601 455.5,313C 456.64,314.973 457.973,316.807 459.5,318.5C 456.874,320.823 454.207,323.157 451.5,325.5C 446.843,320.675 442.343,315.675 438,310.5C 429.667,317.5 421.333,324.5 413,331.5C 412.333,332.5 412.333,333.5 413,334.5C 416.833,339 420.667,343.5 424.5,348C 421.948,350.853 419.115,353.353 416,355.5C 406.153,343.655 396.32,331.822 386.5,320C 388.951,317.385 391.618,314.885 394.5,312.5C 398.49,316.659 402.324,320.993 406,325.5C 413.691,319.302 421.191,312.969 428.5,306.5 Z"/></g>
<g><path style="opacity:1" fill="#e1e1e1" d="M 392.5,376.5 C 388.5,376.5 384.5,376.5 380.5,376.5C 383.165,373.665 385.665,370.665 388,367.5C 389.261,361.92 387.094,360.087 381.5,362C 372.946,367.779 363.612,371.612 353.5,373.5C 345.393,372.286 341.893,367.62 343,359.5C 349.854,347.32 359.854,338.653 373,333.5C 375.821,334.987 377.987,337.154 379.5,340C 370.018,343.16 361.851,348.327 355,355.5C 352.376,362.429 354.543,364.262 361.5,361C 368.595,357.119 375.929,353.785 383.5,351C 395.354,349.52 400.52,354.687 399,366.5C 397.569,370.374 395.403,373.707 392.5,376.5 Z"/></g>
<g><path style="opacity:1" fill="#df486b" d="M 616.5,371.5 C 626.341,370.177 636.341,370.177 646.5,371.5C 646.376,372.107 646.043,372.44 645.5,372.5C 636.014,371.506 626.348,371.173 616.5,371.5 Z"/></g>
<g><path style="opacity:1" fill="#d50934" d="M 616.5,371.5 C 626.348,371.173 636.014,371.506 645.5,372.5C 640.831,383.838 636.164,395.171 631.5,406.5C 623.427,407.132 615.76,406.465 608.5,404.5C 610.675,393.268 613.342,382.268 616.5,371.5 Z"/></g>
<g><path style="opacity:1" fill="#e0496a" d="M 538.5,377.5 C 558.66,376.503 578.993,376.17 599.5,376.5C 599.5,386.833 599.5,397.167 599.5,407.5C 589.167,407.5 578.833,407.5 568.5,407.5C 578.319,406.506 588.319,406.173 598.5,406.5C 598.5,396.833 598.5,387.167 598.5,377.5C 578.5,377.5 558.5,377.5 538.5,377.5 Z"/></g>
<g><path style="opacity:1" fill="#d50433" d="M 263.5,445.5 C 264.833,445.5 266.167,445.5 267.5,445.5C 268.117,450.585 269.117,455.585 270.5,460.5C 258.33,455.942 246.163,451.275 234,446.5C 229.896,448.933 226.063,451.767 222.5,455C 221.552,455.483 220.552,455.649 219.5,455.5C 215.028,449.552 211.861,442.885 210,435.5C 208.684,426.218 208.184,416.884 208.5,407.5C 207.167,407.5 205.833,407.5 204.5,407.5C 204.5,397.167 204.5,386.833 204.5,376.5C 210.509,376.334 216.509,376.501 222.5,377C 229.745,378.577 234.911,382.744 238,389.5C 238.054,403.235 238.72,416.902 240,430.5C 244.544,440.687 252.377,445.687 263.5,445.5 Z"/></g>
<g><path style="opacity:1" fill="#d50634" d="M 316.5,376.5 C 316.5,378.167 316.5,379.833 316.5,381.5C 311.565,382.226 307.399,384.56 304,388.5C 303.833,389.667 303.667,390.833 303.5,392C 306.203,405.034 309.203,417.868 312.5,430.5C 312.634,432.292 312.301,433.958 311.5,435.5C 310.733,439.149 309.4,442.482 307.5,445.5C 299.532,436.693 291.698,427.693 284,418.5C 283.5,409.173 283.334,399.839 283.5,390.5C 285.189,384.641 288.856,380.474 294.5,378C 301.746,376.609 309.079,376.109 316.5,376.5 Z"/></g>
<g><path style="opacity:1" fill="#d50834" d="M 346.5,377.5 C 356.839,377.334 367.172,377.5 377.5,378C 372.245,381.794 366.579,384.794 360.5,387C 362.013,389.846 364.179,392.013 367,393.5C 375.931,389.954 383.764,384.788 390.5,378C 393.817,377.502 397.15,377.335 400.5,377.5C 400.5,387.5 400.5,397.5 400.5,407.5C 387.167,407.5 373.833,407.5 360.5,407.5C 360.36,409.124 361.027,410.29 362.5,411C 372.322,414.274 381.989,417.941 391.5,422C 402.364,432.076 404.531,443.909 398,457.5C 392.683,466.469 384.85,471.969 374.5,474C 357.17,474.5 339.837,474.667 322.5,474.5C 322.5,464.5 322.5,454.5 322.5,444.5C 335.167,444.5 347.833,444.5 360.5,444.5C 360.784,442.585 360.451,440.919 359.5,439.5C 349.127,437.323 339.46,433.489 330.5,428C 328.536,426.549 327.203,424.716 326.5,422.5C 327.203,420.284 328.536,418.451 330.5,417C 334.167,414 337.833,411 341.5,408C 345.604,408.263 349.604,408.93 353.5,410C 357.067,407.055 360.4,403.889 363.5,400.5C 354.073,395.855 344.407,391.688 334.5,388C 332.456,387.502 331.122,386.335 330.5,384.5C 335.057,380.558 340.391,378.225 346.5,377.5 Z"/></g>
<g><path style="opacity:1" fill="#c21c38" d="M 346.5,377.5 C 357.654,376.505 368.988,376.172 380.5,376.5C 384.5,376.5 388.5,376.5 392.5,376.5C 395.385,376.194 398.052,376.527 400.5,377.5C 397.15,377.335 393.817,377.502 390.5,378C 383.764,384.788 375.931,389.954 367,393.5C 364.179,392.013 362.013,389.846 360.5,387C 366.579,384.794 372.245,381.794 377.5,378C 367.172,377.5 356.839,377.334 346.5,377.5 Z"/></g>
<g><path style="opacity:1" fill="#d50433" d="M 436.5,440.5 C 435.505,451.321 435.172,462.321 435.5,473.5C 425.5,473.5 415.5,473.5 405.5,473.5C 405.5,441.5 405.5,409.5 405.5,377.5C 415.5,377.5 425.5,377.5 435.5,377.5C 435.5,388.5 435.5,399.5 435.5,410.5C 445.681,410.827 455.681,410.494 465.5,409.5C 465.5,398.5 465.5,387.5 465.5,376.5C 475.5,376.5 485.5,376.5 495.5,376.5C 495.5,409.167 495.5,441.833 495.5,474.5C 485.5,474.5 475.5,474.5 465.5,474.5C 465.5,463.167 465.5,451.833 465.5,440.5C 455.833,440.5 446.167,440.5 436.5,440.5 Z"/></g>
<g><path style="opacity:1" fill="#e87891" d="M 405.5,377.5 C 415.653,376.506 425.986,376.172 436.5,376.5C 436.5,387.5 436.5,398.5 436.5,409.5C 446.167,409.5 455.833,409.5 465.5,409.5C 455.681,410.494 445.681,410.827 435.5,410.5C 435.5,399.5 435.5,388.5 435.5,377.5C 425.5,377.5 415.5,377.5 405.5,377.5 Z"/></g>
<g><path style="opacity:1" fill="#e4607c" d="M 500.5,376.5 C 510.833,376.5 521.167,376.5 531.5,376.5C 531.5,409.167 531.5,441.833 531.5,474.5C 521.167,474.5 510.833,474.5 500.5,474.5C 500.5,441.833 500.5,409.167 500.5,376.5 Z"/></g>
<g><path style="opacity:1" fill="#d40031" d="M 501.5,377.5 C 511.167,377.5 520.833,377.5 530.5,377.5C 530.5,409.5 530.5,441.5 530.5,473.5C 520.833,473.5 511.167,473.5 501.5,473.5C 501.5,441.5 501.5,409.5 501.5,377.5 Z"/></g>
<g><path style="opacity:1" fill="#d50132" d="M 538.5,377.5 C 558.5,377.5 578.5,377.5 598.5,377.5C 598.5,387.167 598.5,396.833 598.5,406.5C 588.319,406.173 578.319,406.506 568.5,407.5C 568.5,408.5 568.5,409.5 568.5,410.5C 576.167,410.5 583.833,410.5 591.5,410.5C 591.5,420.5 591.5,430.5 591.5,440.5C 583.833,440.5 576.167,440.5 568.5,440.5C 568.263,441.791 568.596,442.791 569.5,443.5C 569.833,443.5 570.167,443.5 570.5,443.5C 580.987,444.494 591.654,444.828 602.5,444.5C 602.5,454.167 602.5,463.833 602.5,473.5C 584.5,473.5 566.5,473.5 548.5,473.5C 543.91,472.079 540.744,469.079 539,464.5C 538.5,435.502 538.333,406.502 538.5,377.5 Z"/></g>
<g><path style="opacity:1" fill="#d50633" d="M 678.5,377.5 C 695.833,377.5 713.167,377.5 730.5,377.5C 730.5,387.167 730.5,396.833 730.5,406.5C 717.167,406.5 703.833,406.5 690.5,406.5C 690.232,408.099 690.566,409.432 691.5,410.5C 701.146,413.986 710.812,417.486 720.5,421C 731.744,428.394 735.244,438.561 731,451.5C 726.445,464.057 717.611,471.557 704.5,474C 687.503,474.5 670.503,474.667 653.5,474.5C 653.5,464.167 653.5,453.833 653.5,443.5C 665.833,443.5 678.167,443.5 690.5,443.5C 690.5,442.167 690.5,440.833 690.5,439.5C 680.665,437.278 671.331,433.778 662.5,429C 650.146,416.901 648.312,403.401 657,388.5C 662.489,381.506 669.656,377.839 678.5,377.5 Z"/></g>
<g><path style="opacity:1" fill="#e35877" d="M 678.5,377.5 C 695.992,376.503 713.659,376.17 731.5,376.5C 731.5,386.833 731.5,397.167 731.5,407.5C 718.167,407.5 704.833,407.5 691.5,407.5C 691.5,408.5 691.5,409.5 691.5,410.5C 690.566,409.432 690.232,408.099 690.5,406.5C 703.833,406.5 717.167,406.5 730.5,406.5C 730.5,396.833 730.5,387.167 730.5,377.5C 713.167,377.5 695.833,377.5 678.5,377.5 Z"/></g>
<g><path style="opacity:1" fill="#bd1232" d="M 316.5,381.5 C 316.5,389.833 316.5,398.167 316.5,406.5C 315.209,406.263 314.209,406.596 313.5,407.5C 313.799,415.253 313.466,422.92 312.5,430.5C 309.203,417.868 306.203,405.034 303.5,392C 303.667,390.833 303.833,389.667 304,388.5C 307.399,384.56 311.565,382.226 316.5,381.5 Z"/></g>
<g><path style="opacity:1" fill="#bf042f" d="M 327.5,387.5 C 339.076,391.305 350.409,395.805 361.5,401C 358.833,403.333 356.167,405.667 353.5,408C 349.5,407.333 345.5,406.667 341.5,406C 336.137,410.998 330.47,415.498 324.5,419.5C 323.323,417.321 322.323,414.987 321.5,412.5C 321.334,407.489 321.501,402.489 322,397.5C 323.086,393.654 324.919,390.32 327.5,387.5 Z"/></g>
<g><path style="opacity:1" fill="#e18fa1" d="M 316.5,376.5 C 317.494,386.653 317.828,396.986 317.5,407.5C 316.167,407.5 314.833,407.5 313.5,407.5C 314.209,406.596 315.209,406.263 316.5,406.5C 316.5,398.167 316.5,389.833 316.5,381.5C 316.5,379.833 316.5,378.167 316.5,376.5 Z"/></g>
<g><path style="opacity:1" fill="#d61a46" d="M 330.5,384.5 C 331.122,386.335 332.456,387.502 334.5,388C 344.407,391.688 354.073,395.855 363.5,400.5C 360.4,403.889 357.067,407.055 353.5,410C 349.604,408.93 345.604,408.263 341.5,408C 337.833,411 334.167,414 330.5,417C 328.536,418.451 327.203,420.284 326.5,422.5C 325.5,422.167 324.833,421.5 324.5,420.5C 324.5,420.167 324.5,419.833 324.5,419.5C 330.47,415.498 336.137,410.998 341.5,406C 345.5,406.667 349.5,407.333 353.5,408C 356.167,405.667 358.833,403.333 361.5,401C 350.409,395.805 339.076,391.305 327.5,387.5C 328.167,386.167 329.167,385.167 330.5,384.5 Z"/></g>
<g><path style="opacity:1" fill="#f0a9ba" d="M 608.5,404.5 C 615.76,406.465 623.427,407.132 631.5,406.5C 623.684,407.492 615.684,407.826 607.5,407.5C 607.263,406.209 607.596,405.209 608.5,404.5 Z"/></g>
<g><path style="opacity:1" fill="#e1e0e0" d="M 313.5,407.5 C 314.833,407.5 316.167,407.5 317.5,407.5C 318.165,409.369 318.831,411.369 319.5,413.5C 320.183,413.137 320.85,412.804 321.5,412.5C 322.323,414.987 323.323,417.321 324.5,419.5C 324.5,419.833 324.5,420.167 324.5,420.5C 323.188,421.145 322.188,422.145 321.5,423.5C 322.721,426.762 323.221,430.096 323,433.5C 320.021,435.644 317.188,437.978 314.5,440.5C 313.999,438.345 312.999,436.678 311.5,435.5C 312.301,433.958 312.634,432.292 312.5,430.5C 313.466,422.92 313.799,415.253 313.5,407.5 Z"/></g>
<g><path style="opacity:1" fill="#e2e1e2" d="M 282.5,418.5 C 282.5,420.833 282.5,423.167 282.5,425.5C 281.833,428.167 281.167,430.833 280.5,433.5C 279.599,434.29 278.932,435.29 278.5,436.5C 277.5,436.833 276.833,437.5 276.5,438.5C 274.469,440.522 272.135,442.189 269.5,443.5C 269.167,443.5 268.833,443.5 268.5,443.5C 266.169,436.351 265.003,429.018 265,421.5C 268.678,418.486 272.345,415.486 276,412.5C 278.678,414.014 280.845,416.014 282.5,418.5 Z"/></g>
<g><path style="opacity:1" fill="#bb022d" d="M 280.5,433.5 C 281.167,430.833 281.833,428.167 282.5,425.5C 283.302,424.048 283.802,422.382 284,420.5C 291.531,429.076 298.698,437.91 305.5,447C 303.59,450.049 301.09,452.549 298,454.5C 291.578,447.919 285.745,440.919 280.5,433.5 Z"/></g>
<g><path style="opacity:1" fill="#d7224a" d="M 283.5,390.5 C 283.334,399.839 283.5,409.173 284,418.5C 291.698,427.693 299.532,436.693 307.5,445.5C 306.502,449.505 304.502,452.839 301.5,455.5C 301.44,454.957 301.107,454.624 300.5,454.5C 299.38,455.833 298.047,456.333 296.5,456C 291.291,448.63 285.291,442.13 278.5,436.5C 278.932,435.29 279.599,434.29 280.5,433.5C 285.745,440.919 291.578,447.919 298,454.5C 301.09,452.549 303.59,450.049 305.5,447C 298.698,437.91 291.531,429.076 284,420.5C 283.802,422.382 283.302,424.048 282.5,425.5C 282.5,423.167 282.5,420.833 282.5,418.5C 282.173,408.985 282.506,399.652 283.5,390.5 Z"/></g>
<g><path style="opacity:1" fill="#d50c37" d="M 278.5,436.5 C 285.291,442.13 291.291,448.63 296.5,456C 298.047,456.333 299.38,455.833 300.5,454.5C 301.107,454.624 301.44,454.957 301.5,455.5C 295.646,464.102 287.646,469.769 277.5,472.5C 278.793,470.704 280.293,469.037 282,467.5C 281.018,457.597 279.184,447.93 276.5,438.5C 276.833,437.5 277.5,436.833 278.5,436.5 Z"/></g>
<g><path style="opacity:1" fill="#bb032d" d="M 276.5,438.5 C 279.184,447.93 281.018,457.597 282,467.5C 280.293,469.037 278.793,470.704 277.5,472.5C 276.791,473.404 275.791,473.737 274.5,473.5C 262.781,469.87 251.281,465.536 240,460.5C 238.743,460.85 238.409,461.517 239,462.5C 241.797,466.299 244.964,469.799 248.5,473C 247.906,473.464 247.239,473.631 246.5,473.5C 237.987,471.578 230.654,467.578 224.5,461.5C 223.5,460.167 222.5,458.833 221.5,457.5C 225.564,454.101 229.898,451.101 234.5,448.5C 247.066,453.368 259.566,458.368 272,463.5C 271.393,457.258 270.226,451.091 268.5,445C 269.056,444.617 269.389,444.117 269.5,443.5C 272.135,442.189 274.469,440.522 276.5,438.5 Z"/></g>
<g><path style="opacity:1" fill="#f0a8b9" d="M 591.5,440.5 C 583.943,440.848 576.61,441.848 569.5,443.5C 568.596,442.791 568.263,441.791 568.5,440.5C 576.167,440.5 583.833,440.5 591.5,440.5 Z"/></g>
<g><path style="opacity:1" fill="#e04c6d" d="M 359.5,439.5 C 360.451,440.919 360.784,442.585 360.5,444.5C 347.833,444.5 335.167,444.5 322.5,444.5C 334.655,443.505 346.989,443.171 359.5,443.5C 359.5,442.167 359.5,440.833 359.5,439.5 Z"/></g>
<g><path style="opacity:1" fill="#d51a45" d="M 268.5,443.5 C 268.833,443.5 269.167,443.5 269.5,443.5C 269.389,444.117 269.056,444.617 268.5,445C 270.226,451.091 271.393,457.258 272,463.5C 259.566,458.368 247.066,453.368 234.5,448.5C 229.898,451.101 225.564,454.101 221.5,457.5C 220.5,457.167 219.833,456.5 219.5,455.5C 220.552,455.649 221.552,455.483 222.5,455C 226.063,451.767 229.896,448.933 234,446.5C 246.163,451.275 258.33,455.942 270.5,460.5C 269.117,455.585 268.117,450.585 267.5,445.5C 266.167,445.5 264.833,445.5 263.5,445.5C 265.028,444.691 266.694,444.024 268.5,443.5 Z"/></g>
<g><path style="opacity:1" fill="#d5103a" d="M 274.5,473.5 C 273.737,474.268 272.737,474.768 271.5,475C 264.842,475.5 258.175,475.666 251.5,475.5C 249.833,474.833 248.167,474.167 246.5,473.5C 247.239,473.631 247.906,473.464 248.5,473C 244.964,469.799 241.797,466.299 239,462.5C 238.409,461.517 238.743,460.85 240,460.5C 251.281,465.536 262.781,469.87 274.5,473.5 Z"/></g>
<g><path style="opacity:1" fill="#e1dfe0" d="M 224.5,461.5 C 230.654,467.578 237.987,471.578 246.5,473.5C 248.167,474.167 249.833,474.833 251.5,475.5C 251.062,475.435 250.728,475.601 250.5,476C 253.313,479.647 256.313,483.147 259.5,486.5C 256.826,489.006 253.992,491.339 251,493.5C 242.498,483.825 233.998,474.159 225.5,464.5C 224.873,463.583 224.539,462.583 224.5,461.5 Z"/></g>
<g><path style="opacity:1" fill="#e1e1e1" d="M 207.5,471.5 C 210.146,473.479 212.479,475.812 214.5,478.5C 204.259,481.578 195.759,487.245 189,495.5C 187.417,500.1 188.917,501.934 193.5,501C 200.167,497.667 206.833,494.333 213.5,491C 218.411,489.508 223.411,489.174 228.5,490C 235.586,495.948 236.42,502.781 231,510.5C 223.119,520.367 213.286,527.7 201.5,532.5C 198.8,530.766 196.8,528.432 195.5,525.5C 206.454,521.706 215.621,515.373 223,506.5C 224.468,499.553 221.968,497.72 215.5,501C 207.194,506.487 198.194,510.32 188.5,512.5C 177.058,508.919 174.558,501.919 181,491.5C 188.601,483.048 197.434,476.381 207.5,471.5 Z"/></g>
<g><path style="opacity:1" fill="#ea859b" d="M 436.5,440.5 C 436.5,451.833 436.5,463.167 436.5,474.5C 425.986,474.828 415.653,474.494 405.5,473.5C 415.5,473.5 425.5,473.5 435.5,473.5C 435.172,462.321 435.505,451.321 436.5,440.5 Z"/></g>
<g><path style="opacity:1" fill="#e56984" d="M 570.5,443.5 C 581.5,443.5 592.5,443.5 603.5,443.5C 603.5,453.833 603.5,464.167 603.5,474.5C 584.992,474.83 566.659,474.497 548.5,473.5C 566.5,473.5 584.5,473.5 602.5,473.5C 602.5,463.833 602.5,454.167 602.5,444.5C 591.654,444.828 580.987,444.494 570.5,443.5 Z"/></g>
<g><path style="opacity:1" fill="#d71a3b" d="M 418.5,493.5 C 430.761,492.579 435.594,497.913 433,509.5C 429.845,514.332 425.345,516.998 419.5,517.5C 419.5,520.167 419.5,522.833 419.5,525.5C 417.856,525.714 416.356,525.38 415,524.5C 414.235,515.166 413.902,505.832 414,496.5C 415.652,495.601 417.152,494.601 418.5,493.5 Z"/></g>
<g><path style="opacity:1" fill="#d7193a" d="M 479.5,496.5 C 484.357,496.605 488.857,497.271 493,498.5C 493.667,505.833 493.667,513.167 493,520.5C 490.844,529.828 485.344,532.661 476.5,529C 474.845,527.556 474.178,525.722 474.5,523.5C 477.958,523.881 481.292,524.381 484.5,525C 486.922,522.997 487.755,520.497 487,517.5C 480.857,523.538 476.191,522.538 473,514.5C 471.707,507.209 473.874,501.209 479.5,496.5 Z"/></g>
<g><path style="opacity:1" fill="#d71d3d" d="M 448.5,509.5 C 447.167,509.5 445.833,509.5 444.5,509.5C 444.094,502.068 447.594,497.734 455,496.5C 459.203,497.034 461.87,499.368 463,503.5C 463.912,510.649 463.245,517.649 461,524.5C 460.439,525.022 459.772,525.355 459,525.5C 457.604,524.606 456.104,523.939 454.5,523.5C 446.594,526.15 442.427,523.483 442,515.5C 443.494,512.686 445.66,510.686 448.5,509.5 Z"/></g>
<g><path style="opacity:1" fill="#fefafb" d="M 419.5,499.5 C 428.865,498.936 430.865,502.436 425.5,510C 423.655,511.128 421.655,511.628 419.5,511.5C 419.5,507.5 419.5,503.5 419.5,499.5 Z"/></g>
<g><path style="opacity:1" fill="#d71c3c" d="M 511.5,499.5 C 521.3,500.112 524.133,504.778 520,513.5C 517.531,515.652 514.698,517.152 511.5,518C 514.259,521.16 516.926,521.16 519.5,518C 523.088,517.389 524.254,518.889 523,522.5C 515.103,527.679 509.103,526.012 505,517.5C 503.003,509.854 505.17,503.854 511.5,499.5 Z"/></g>
<g><path style="opacity:1" fill="#fef8f9" d="M 448.5,509.5 C 449.422,504.371 452.255,502.371 457,503.5C 457.497,505.81 457.663,508.143 457.5,510.5C 454.545,509.841 451.545,509.508 448.5,509.5 Z"/></g>
<g><path style="opacity:1" fill="#fef8f9" d="M 480.5,502.5 C 482.199,502.34 483.866,502.506 485.5,503C 486.705,508.099 485.205,512.266 481,515.5C 480.228,515.355 479.561,515.022 479,514.5C 478.19,510.31 478.69,506.31 480.5,502.5 Z"/></g>
<g><path style="opacity:1" fill="#fdf6f8" d="M 512.5,505.5 C 516.82,505.959 517.487,507.792 514.5,511C 513.207,511.49 511.873,511.657 510.5,511.5C 510.253,509.142 510.919,507.142 512.5,505.5 Z"/></g>
<g><path style="opacity:1" fill="#e2e2e2" d="M 154.5,515.5 C 175.853,513.687 185.686,523.354 184,544.5C 177.556,560.137 166.389,564.97 150.5,559C 138.787,551.074 135.62,540.574 141,527.5C 144.454,522.206 148.954,518.206 154.5,515.5 Z"/></g>
<g><path style="opacity:1" fill="#fdf0f2" d="M 448.5,515.5 C 450.924,515.192 453.257,515.526 455.5,516.5C 453.07,518.571 450.403,518.904 447.5,517.5C 447.863,516.817 448.196,516.15 448.5,515.5 Z"/></g>
<g><path style="opacity:1" fill="#fdfdfd" d="M 156.5,519.5 C 173.721,518.552 181.554,526.552 180,543.5C 176.058,554.56 168.224,559.06 156.5,557C 145.104,552.185 140.937,543.685 144,531.5C 146.744,525.921 150.911,521.921 156.5,519.5 Z"/></g>
<g><path style="opacity:1" fill="#e2e2e2" d="M 160.5,523.5 C 162.384,523.712 163.717,524.712 164.5,526.5C 151.191,530.255 149.191,537.088 158.5,547C 166.158,548.754 171.324,545.921 174,538.5C 175.022,539.354 175.855,540.354 176.5,541.5C 169.789,553.59 161.289,555.257 151,546.5C 145.924,535.328 149.09,527.662 160.5,523.5 Z"/></g>
</svg>
